# xmcd
#
# Track frame offsets: 
#        150
#        9952
#        28865
#        51774
#        67050
#        80526
#        100473
#        134610
#        153523
#        171225
#        190604
#
# Disc length: 2824 seconds
#
# Revision: 0
# Processed by: cddbd v1.5.2PL0 Copyright (c) Steve Scherf et al.
# Submitted via: ExactAudioCopy v1.0b4
#
DISCID=920b060b
DTITLE=Diana Braithwaite and Chris Whiteley - Blues Stories
DYEAR=2014
DGENRE=Chicago Blues
TTITLE0=Rocks And Gravel
TTITLE1=Florida
TTITLE2=Lighthouse Keeper
TTITLE3=Bye Bye Bird
TTITLE4=Blues March
TTITLE5=Fried Fish
TTITLE6=Child Of Circumstance
TTITLE7=Tic Tac Toe
TTITLE8=Hard Time Killin' Floor
TTITLE9=Careless Love
TTITLE10=You Don't Have To Go
EXTD=
EXTT0=
EXTT1=
EXTT2=
EXTT3=
EXTT4=
EXTT5=
EXTT6=
EXTT7=
EXTT8=
EXTT9=
EXTT10=
PLAYORDER=
